# xmcd
#
# Track frame offsets: 
#        150
#        14797
#        26955
#        44960
#        61817
#        76787
#        90281
#        104060
#        121520
#        136387
#        152409
#        166185
#
# Disc length: 2521 seconds
#
# Revision: 4
# Processed by: cddbd v1.5.2PL0 Copyright (c) Steve Scherf et al.
# Submitted via: ExactAudioCopy v0.95b4
#
DISCID=9409d70c
DTITLE=Hoobastank - The Reason
DYEAR=2003
DGENRE=Rock
TTITLE0=Same Direction
TTITLE1=Out of Control
TTITLE2=What Happened To Us?
TTITLE3=Escape
TTITLE4=Just One
TTITLE5=Lucky
TTITLE6=From the Heart
TTITLE7=The Reason
TTITLE8=Let It Out
TTITLE9=Unaffected
TTITLE10=Never There
TTITLE11=Disappear
EXTD=YEAR: 2003
EXTT0=
EXTT1=
EXTT2=
EXTT3=
EXTT4=
EXTT5=
EXTT6=
EXTT7=
EXTT8=
EXTT9=
EXTT10=
EXTT11=
PLAYORDER=
